# xmcd CD database file
#
# Track frame offsets:
#	150
#	21824
#	48213
#	59270
#	86634
#	118705
#	138752
#	170233
#	191953
#	218367
#	229400
#	256524
#	288629
#	308665
#
# Disc length: 4533 seconds
#
# Revision: 0
# Processed by: cddbd v1.5.2PL0 Copyright (c) Steve Scherf et al.
# Submitted via: CDex 1.70beta2
#
DISCID=c311b30e
DTITLE=Coltrane, John - Giant Steps (mono and stereo)
DYEAR=2017
DGENRE=Jazz
TTITLE0=1)	Giant Steps 4:47
TTITLE1=2)	Cousin Mary 5:50
TTITLE2=3)	Countdown 2:25
TTITLE3=4)	Spiral 6:03
TTITLE4=5)	Syeeda's Song Flute 7:06
TTITLE5=6)	Naima 4:25
TTITLE6=7)	Mr. P.C. 7:03
TTITLE7=8)	Giant Steps 4:48
TTITLE8=9)	Cousin Mary 5:50
TTITLE9=10)	Countdown 2:25
TTITLE10=11)	Spiral 6:00
TTITLE11=12)	Syeeda's Song Flute 7:06
TTITLE12=13)	Naima 4:25
TTITLE13=14)	Mr. P.C. 6:58
EXTD=YEAR: 2017
EXTT0=
EXTT1=
EXTT2=
EXTT3=
EXTT4=
EXTT5=
EXTT6=
EXTT7=
EXTT8=
EXTT9=
EXTT10=
EXTT11=
EXTT12=
EXTT13=
PLAYORDER=
